/* XPM */
static char * close_pressed_xpm[] = {
"21 21 3 1",
" 	c None",
".	c #D91717",
"+	c #FFFFFF",
".....................",
".....................",
".....................",
".....................",
".....................",
".....................",
"......++.....++......",
"......+++...+++......",
".......+++.+++.......",
"........+++++........",
".........+++.........",
"........+++++........",
".......+++.+++.......",
"......+++...+++......",
"......++.....++......",
".....................",
".....................",
".....................",
".....................",
".....................",
"....................."};
