/* XPM */
static char * maximize_active_xpm[] = {
"21 21 3 1",
" 	c None",
".	c #BBBBBB",
"+	c #FFFFFF",
".....................",
".....................",
".....................",
".....................",
".....................",
".....................",
"......+++++++++......",
"......+++++++++......",
"......+++++++++......",
"......+.......+......",
"......+.......+......",
"......+.......+......",
"......+.......+......",
"......+.......+......",
"......+++++++++......",
".....................",
".....................",
".....................",
".....................",
".....................",
"....................."};
