/* XPM */
static char * shade_active_xpm[] = {
"21 21 3 1",
" 	c None",
".	c #FF00FF",
"+	c #FFFFFF",
".....................",
".....................",
".....................",
".....................",
".....................",
".....................",
".....................",
".........+++.........",
"........+++++........",
".......+++++++.......",
"......+++...+++......",
"......++.....++......",
".....................",
".....................",
".....................",
".....................",
".....................",
".....................",
".....................",
".....................",
"....................."};
