/* XPM */
static char * stick_active_xpm[] = {
"21 21 3 1",
" 	c None",
".	c #123456",
"+	c #FFFFFF",
".....................",
".....................",
".....................",
".....................",
".....................",
".....................",
"........+++++........",
".......+++++++.......",
"......+++...+++......",
"......++.....++......",
"......++.....++......",
"......++.....++......",
"......+++...+++......",
".......+++++++.......",
"........+++++........",
".....................",
".....................",
".....................",
".....................",
".....................",
"....................."};
